<svg xmlns="http://www.w3.org/2000/svg" viewBox="0 0 400 400" width="400" height="400">
  <defs>
    <pattern id="petPattern" x="0" y="0" width="80" height="80" patternUnits="userSpaceOnUse">
      <!-- Paw prints -->
      <g fill="#FFD166" opacity="0.6">
        <ellipse cx="15" cy="15" rx="3" ry="4"/>
        <ellipse cx="25" cy="12" rx="3" ry="4"/>
        <ellipse cx="35" cy="15" rx="3" ry="4"/>
        <ellipse cx="20" cy="25" rx="2" ry="3"/>
        <ellipse cx="30" cy="25" rx="2" ry="3"/>
        <ellipse cx="25" cy="32" rx="4" ry="5"/>
      </g>
      
      <!-- Black paw prints -->
      <g fill="#2C3E50" opacity="0.4">
        <ellipse cx="55" cy="45" rx="2.5" ry="3.5"/>
        <ellipse cx="63" cy="42" rx="2.5" ry="3.5"/>
        <ellipse cx="71" cy="45" rx="2.5" ry="3.5"/>
        <ellipse cx="59" cy="53" rx="2" ry="2.5"/>
        <ellipse cx="67" cy="53" rx="2" ry="2.5"/>
        <ellipse cx="63" cy="58" rx="3" ry="4"/>
      </g>
      
      <!-- Bones -->
      <g fill="#F7931E" opacity="0.5">
        <path d="M10 60 Q15 55 20 60 Q25 65 30 60 Q35 55 40 60 Q35 65 30 70 Q25 65 20 70 Q15 65 10 70 Q15 65 10 60Z"/>
      </g>
      
      <!-- Hearts -->
      <g fill="#FFD166" opacity="0.7">
        <path d="M50 25 C48 22 45 22 45 25 C45 22 42 22 40 25 C40 28 45 33 45 33 C45 33 50 28 50 25Z"/>
      </g>
      
      <!-- Balls -->
      <g fill="none" stroke="#2C3E50" stroke-width="1.5" opacity="0.3">
        <circle cx="65" cy="15" r="6"/>
        <path d="M59 15 Q65 9 71 15 M59 15 Q65 21 71 15"/>
      </g>
      
      <!-- More paw prints scattered -->
      <g fill="#F7931E" opacity="0.4">
        <ellipse cx="5" cy="45" rx="2" ry="3"/>
        <ellipse cx="12" cy="42" rx="2" ry="3"/>
        <ellipse cx="19" cy="45" rx="2" ry="3"/>
        <ellipse cx="8" cy="52" rx="1.5" ry="2"/>
        <ellipse cx="15" cy="52" rx="1.5" ry="2"/>
        <ellipse cx="12" cy="57" rx="2.5" ry="3"/>
      </g>
      
      <!-- Small hearts -->
      <g fill="#FFD166" opacity="0.5">
        <path d="M75 65 C74 63 72 63 72 65 C72 63 70 63 69 65 C69 67 72 70 72 70 C72 70 75 67 75 65Z"/>
        <path d="M35 5 C34 3 32 3 32 5 C32 3 30 3 29 5 C29 7 32 10 32 10 C32 10 35 7 35 5Z"/>
      </g>
    </pattern>
  </defs>
  
  <rect width="100%" height="100%" fill="url(#petPattern)"/>
</svg>